<svg width="250" height="36" viewBox="0 0 250 36" fill="none" xmlns="http://www.w3.org/2000/svg">
<g clip-path="url(#clip0_31_1269)">
<path d="M43.7572 29.4452V12.8339H47.3143V19.6739H54.6158V12.8339H58.1729V29.4452H54.6158V22.7944H47.3143V29.4452H43.7572Z" fill="#131A27"/>
<path d="M78.4122 21.5336C78.5161 20.1047 78.5786 18.6863 78.5994 17.2784C78.641 15.8494 78.6826 14.3679 78.7242 12.8339H91.0181V29.4452H87.4298V15.9544H82.0317C81.9901 16.9841 81.9484 18.0138 81.9069 19.0434C81.8861 20.0521 81.8445 21.0608 81.7821 22.0695C81.7613 22.4477 81.7197 22.8995 81.6573 23.4248C81.6157 23.9291 81.5532 24.444 81.47 24.9693C81.3869 25.4736 81.2621 25.957 81.0956 26.4193C80.9292 26.8606 80.7212 27.2703 80.4716 27.6486C80.0347 28.279 79.4522 28.7413 78.7242 29.0355C78.0169 29.3087 77.1952 29.4452 76.2592 29.4452H75.3855V26.3562C76.0095 26.3562 76.5089 26.2091 76.8833 25.915C77.2785 25.5997 77.5697 25.211 77.7569 24.7487C77.965 24.2654 78.1105 23.7505 78.1938 23.2042C78.2978 22.6368 78.3706 22.08 78.4122 21.5336Z" fill="#131A27"/>
<path d="M96.3271 29.4452H93.0197V12.8339H96.5768V24.2444L104.939 12.8339H108.153V29.4452H104.596V18.2554C104.575 18.2975 101.819 22.0274 96.3271 29.4452Z" fill="#131A27"/>
<path d="M110.161 29.4452V12.8339H113.688V19.6109H116.215L120.427 12.8339H124.483L119.272 20.7456L124.889 29.4452H120.77L116.434 22.7314H113.688V29.4452H110.161Z" fill="#131A27"/>
<path d="M142.352 20.5564C143.226 20.8506 143.871 21.334 144.287 22.0064C144.703 22.6578 144.911 23.3933 144.911 24.2128C144.911 24.2548 144.911 24.2969 144.911 24.3389C144.911 25.3895 144.703 26.2616 144.287 26.955C143.871 27.6486 143.309 28.2054 142.602 28.6256C141.915 29.0249 141.166 29.2981 140.355 29.4452C139.565 29.5923 138.754 29.6658 137.921 29.6658C137.11 29.6658 136.278 29.5923 135.425 29.4452C134.593 29.2771 133.824 28.9934 133.117 28.5941C132.43 28.1949 131.858 27.6696 131.4 27.0181C130.943 26.3667 130.683 25.5471 130.62 24.5595H134.053C134.135 24.9798 134.312 25.3265 134.583 25.5997C134.875 25.8729 135.207 26.0936 135.582 26.2616C135.956 26.4297 136.351 26.5453 136.768 26.6084C137.183 26.6714 137.568 26.7029 137.921 26.7029C138.296 26.7029 138.701 26.6819 139.138 26.6399C139.575 26.5768 139.96 26.4718 140.293 26.3246C140.647 26.1566 140.938 25.9359 141.166 25.6627C141.396 25.3685 141.51 24.9903 141.51 24.528C141.51 23.7294 141.208 23.1936 140.605 22.9205C140.022 22.6473 139.284 22.5107 138.389 22.5107H135.644V19.6739H138.109C138.878 19.6739 139.534 19.5163 140.075 19.201C140.616 18.8859 140.886 18.3395 140.886 17.562C140.886 17.1627 140.782 16.837 140.574 16.5848C140.386 16.3117 140.147 16.1015 139.856 15.9544C139.565 15.8073 139.242 15.7128 138.889 15.6708C138.535 15.6077 138.223 15.5762 137.952 15.5762C137.599 15.5762 137.235 15.6077 136.861 15.6708C136.486 15.7128 136.132 15.8073 135.8 15.9544C135.467 16.1015 135.186 16.3012 134.957 16.5533C134.729 16.8055 134.593 17.1312 134.552 17.5304H131.151C131.233 16.5428 131.494 15.7337 131.931 15.1033C132.368 14.4519 132.909 13.9371 133.554 13.5589C134.198 13.1807 134.906 12.918 135.675 12.7708C136.465 12.6237 137.245 12.5502 138.016 12.5502C138.785 12.5502 139.534 12.6237 140.262 12.7708C141.011 12.918 141.697 13.1912 142.321 13.5904C142.946 13.9897 143.423 14.473 143.757 15.0403C144.11 15.5867 144.287 16.3012 144.287 17.1838C144.287 17.9823 144.099 18.6652 143.726 19.2325C143.372 19.7999 142.914 20.2412 142.352 20.5564Z" fill="#131A27"/>
<path d="M156.808 27.3964C156.268 28.1739 155.55 28.7517 154.656 29.13C153.761 29.4872 152.763 29.6658 151.66 29.6658C150.786 29.6658 149.985 29.5608 149.258 29.3507C148.551 29.1405 147.926 28.8253 147.385 28.4051C146.844 27.9637 146.418 27.4279 146.106 26.7975C145.794 26.146 145.638 25.4105 145.638 24.591C145.638 23.6875 145.814 22.9204 146.168 22.29C146.522 21.6386 147 21.1133 147.604 20.714C148.228 20.3148 148.956 20.0206 149.788 19.8314C150.62 19.6213 151.493 19.5163 152.409 19.5163H156.622C156.622 18.2974 156.351 17.3518 155.81 16.6794C155.269 16.0069 154.323 15.6603 152.971 15.6393C152.18 15.6393 151.493 15.7758 150.911 16.049C150.349 16.3222 149.975 16.7739 149.788 17.4043H146.137C146.262 16.5217 146.543 15.7758 146.98 15.1664C147.437 14.557 147.978 14.0527 148.602 13.6534C149.247 13.2542 149.954 12.9705 150.724 12.8024C151.515 12.6342 152.304 12.5502 153.095 12.5502C154.115 12.5502 155.061 12.6868 155.935 12.96C156.808 13.2332 157.568 13.6955 158.212 14.3469C158.941 15.1033 159.429 16.0069 159.679 17.0577C159.929 18.1084 160.054 19.2536 160.054 20.4934V29.4452H156.964L156.808 27.3964ZM156.622 22.0694H153.189C152.586 22.0694 151.982 22.1219 151.379 22.227C150.776 22.311 150.256 22.5317 149.819 22.889C149.403 23.2251 149.195 23.719 149.195 24.3704C149.195 25.1689 149.476 25.7783 150.037 26.1985C150.62 26.5979 151.327 26.7975 152.16 26.7975C152.804 26.7975 153.397 26.7134 153.938 26.5453C154.499 26.3772 154.978 26.1041 155.374 25.7258C155.768 25.3266 156.07 24.8327 156.278 24.2443C156.507 23.635 156.622 22.91 156.622 22.0694Z" fill="#131A27"/>
<path d="M168.539 29.4452V12.8339H172.095V19.6739H179.397V12.8339H182.954V29.4452H179.397V22.7944H172.095V29.4452H168.539Z" fill="#131A27"/>
<path d="M192.344 12.5502C193.655 12.5502 194.809 12.7603 195.807 13.1807C196.806 13.6009 197.649 14.1892 198.336 14.9457C199.043 15.6813 199.573 16.5743 199.927 17.625C200.28 18.6757 200.457 19.8419 200.457 21.1238C200.457 22.4266 200.28 23.6034 199.927 24.6541C199.593 25.6837 199.084 26.5768 198.398 27.3333C197.711 28.0898 196.858 28.6677 195.84 29.067C194.84 29.4662 193.676 29.6658 192.344 29.6658C191.034 29.6658 189.879 29.4662 188.881 29.067C187.882 28.6466 187.04 28.0688 186.353 27.3333C185.688 26.5768 185.178 25.6732 184.825 24.6225C184.491 23.5719 184.325 22.4056 184.325 21.1238C184.325 19.8419 184.491 18.6757 184.825 17.625C185.178 16.5743 185.698 15.6813 186.384 14.9457C187.071 14.1892 187.913 13.6009 188.912 13.1807C189.911 12.7603 191.054 12.5502 192.344 12.5502ZM192.344 26.5453C193.156 26.5453 193.842 26.4087 194.404 26.1356C194.986 25.8414 195.454 25.4526 195.807 24.9693C196.182 24.486 196.452 23.9186 196.619 23.2672C196.806 22.6158 196.9 21.9118 196.9 21.1553C196.9 20.3989 196.806 19.6949 196.619 19.0434C196.452 18.371 196.182 17.7931 195.807 17.3099C195.454 16.8265 194.986 16.4483 194.404 16.1751C193.842 15.9019 193.156 15.7653 192.344 15.7653C191.554 15.7653 190.868 15.9019 190.285 16.1751C189.724 16.4483 189.255 16.8265 188.881 17.3099C188.527 17.7931 188.257 18.371 188.07 19.0434C187.903 19.6949 187.82 20.3989 187.82 21.1553C187.82 21.9118 187.903 22.6158 188.07 23.2672C188.257 23.9186 188.527 24.486 188.881 24.9693C189.255 25.4526 189.724 25.8414 190.285 26.1356C190.868 26.4087 191.554 26.5453 192.344 26.5453Z" fill="#131A27"/>
<path d="M203.194 21.5336C203.298 20.1047 203.36 18.6863 203.381 17.2784C203.422 15.8494 203.464 14.3679 203.506 12.8339H215.8V29.4452H212.211V15.9544H206.813C206.771 16.9841 206.73 18.0138 206.689 19.0434C206.667 20.0521 206.625 21.0608 206.563 22.0695C206.543 22.4477 206.501 22.8995 206.439 23.4248C206.397 23.9291 206.335 24.444 206.252 24.9693C206.168 25.4736 206.044 25.957 205.877 26.4193C205.711 26.8606 205.503 27.2703 205.253 27.6486C204.816 28.279 204.233 28.7413 203.506 29.0355C202.799 29.3087 201.977 29.4452 201.041 29.4452H200.167V26.3562C200.791 26.3562 201.29 26.2091 201.664 25.915C202.06 25.5997 202.351 25.211 202.538 24.7487C202.746 24.2654 202.892 23.7505 202.976 23.2042C203.079 22.6368 203.152 22.08 203.194 21.5336Z" fill="#131A27"/>
<path d="M221.109 29.4452H217.802V12.8339H221.358V24.2444L229.721 12.8339H232.935V29.4452H229.377V18.2554C229.356 18.2975 226.6 22.0274 221.109 29.4452Z" fill="#131A27"/>
<path d="M234.943 29.4452V12.8339H238.469V19.6109H240.996L245.209 12.8339H249.266L244.054 20.7456L249.671 29.4452H245.552L241.215 22.7314H238.469V29.4452H234.943Z" fill="#131A27"/>
<path d="M70.9954 27.1755C70.4546 27.953 69.737 28.531 68.8425 28.9092C67.948 29.2664 66.9495 29.445 65.847 29.445C64.9733 29.445 64.1725 29.34 63.4445 29.1298C62.7372 28.9197 62.1131 28.6044 61.5723 28.1842C61.0314 27.7429 60.605 27.207 60.2929 26.5767C59.9809 25.9252 59.8249 25.1898 59.8249 24.3702C59.8249 23.4666 60.0018 22.6996 60.3554 22.0693C60.709 21.4178 61.1875 20.8924 61.7907 20.4932C62.4147 20.0939 63.1428 19.7997 63.9749 19.6107C64.8069 19.4005 65.6806 19.2954 66.5959 19.2954H70.8083C70.8083 18.0767 70.5378 17.131 69.997 16.4586C69.4561 15.7861 68.5096 15.4394 67.1575 15.4184C66.367 15.4184 65.6806 15.555 65.0982 15.8281C64.5365 16.1013 64.1621 16.5531 63.9749 17.1836H60.3241C60.4489 16.301 60.7298 15.555 61.1666 14.9455C61.6242 14.3362 62.1651 13.8319 62.7892 13.4326C63.4341 13.0334 64.1412 12.7496 64.911 12.5815C65.7015 12.4135 66.4919 12.3294 67.2824 12.3294C68.3017 12.3294 69.2482 12.466 70.1218 12.7391C70.9954 13.0123 71.7548 13.4746 72.3996 14.126C73.1276 14.8826 73.6165 15.7861 73.8662 16.8368C74.1158 17.8875 74.2406 19.0327 74.2406 20.2726V29.2244H71.1515L70.9954 27.1755ZM70.8083 21.8486H67.376C66.7727 21.8486 66.1695 21.9011 65.5662 22.0062C64.9629 22.0903 64.4429 22.3108 64.006 22.6681C63.59 23.0043 63.382 23.4982 63.382 24.1496C63.382 24.9481 63.6628 25.5575 64.2245 25.9778C64.8069 26.377 65.5142 26.5767 66.3463 26.5767C66.9912 26.5767 67.584 26.4926 68.1248 26.3245C68.6865 26.1563 69.1649 25.8832 69.5601 25.5049C69.9554 25.1057 70.257 24.6118 70.465 24.0235C70.6939 23.4141 70.8083 22.6891 70.8083 21.8486Z" fill="#131A27"/>
<path d="M6.45493 11.9207C6.45493 11.9735 6.41201 12.0164 6.35912 12.0164C6.32185 12.0164 6.28456 12.0164 6.24728 12.0165C6.22212 12.0165 6.19696 12.0165 6.1718 12.0164C5.97372 12.0157 5.78089 12.0319 5.59023 12.089C5.57994 12.092 5.56964 12.095 5.55904 12.0981C5.03235 12.2586 4.60177 12.6264 4.33952 13.1076C4.20196 13.368 4.11202 13.6633 4.1128 13.9593C4.11278 13.97 4.11276 13.9807 4.11274 13.9916C4.11269 14.0276 4.11273 14.0634 4.11277 14.0992C4.11275 14.1252 4.11271 14.1513 4.11268 14.1774C4.11262 14.2493 4.11264 14.3212 4.11266 14.3931C4.11266 14.4632 4.11261 14.5332 4.11256 14.6033C4.11246 14.7482 4.11243 14.8933 4.11243 15.0384C4.11242 15.1854 4.11238 15.3324 4.11232 15.4794C4.11232 15.4887 4.11232 15.498 4.11232 15.5075C4.1123 15.5454 4.11229 15.5831 4.11227 15.621C4.11207 16.0687 4.11199 16.5162 4.11194 16.9639C4.11191 17.1868 4.11187 17.4097 4.11182 17.6327C4.11167 18.3477 4.11154 19.0628 4.1115 19.7778C4.1115 19.812 4.1115 19.8461 4.1115 19.8803C4.11149 19.9489 4.11149 20.0174 4.11149 20.086C4.11148 20.1661 4.11147 20.2464 4.11146 20.3267C4.11146 20.3496 4.11146 20.3726 4.11146 20.3956C4.11142 21.1331 4.11124 21.8707 4.11096 22.6083C4.11076 23.1382 4.11056 23.6682 4.11052 24.1981C4.11052 24.209 4.11052 24.2199 4.11052 24.2312C4.11049 24.4705 4.11049 24.7098 4.11048 24.9492C4.11048 25.0348 4.11047 25.1204 4.11047 25.206C4.11047 25.2273 4.11047 25.2487 4.11047 25.27C4.11046 25.6093 4.11034 25.9486 4.11017 26.288C4.10999 26.6299 4.10993 26.9717 4.11003 27.3136C4.11004 27.3609 4.11005 27.4082 4.11006 27.4555C4.11006 27.4647 4.11007 27.4739 4.11007 27.4835C4.11011 27.63 4.11001 27.7765 4.10987 27.9232C4.10974 28.0674 4.10973 28.2116 4.10986 28.3557C4.10992 28.4328 4.10994 28.51 4.1098 28.587C4.10966 28.6573 4.10968 28.7274 4.10983 28.7977C4.10986 28.8229 4.10984 28.848 4.10975 28.8732C4.10902 29.0713 4.12517 29.2641 4.18231 29.4548C4.18533 29.4651 4.18837 29.4754 4.19148 29.486C4.35183 30.0128 4.7196 30.4436 5.20067 30.7059C5.46101 30.8434 5.75627 30.9333 6.05218 30.9326C6.06286 30.9327 6.07354 30.9327 6.08455 30.9327C6.12039 30.9327 6.15623 30.9327 6.19206 30.9327C6.21811 30.9327 6.24416 30.9327 6.27021 30.9328C6.34209 30.9328 6.41398 30.9328 6.48586 30.9328C6.55589 30.9328 6.62594 30.9328 6.69598 30.9329C6.84099 30.933 6.98601 30.933 7.13102 30.933C7.27801 30.933 7.42498 30.9331 7.57196 30.9331C7.58589 30.9331 7.58589 30.9331 7.6001 30.9331C7.6379 30.9332 7.67569 30.9332 7.71349 30.9332C8.16105 30.9333 8.60861 30.9334 9.05617 30.9334C9.27904 30.9335 9.5019 30.9335 9.72477 30.9336C10.4397 30.9337 11.1546 30.9338 11.8695 30.9339C11.9036 30.9339 11.9377 30.9339 11.9719 30.9339C12.0405 30.9339 12.1089 30.9339 12.1775 30.9339C12.2577 30.9339 12.3379 30.9339 12.4182 30.9339C12.4411 30.9339 12.4641 30.9339 12.4871 30.9339C13.2245 30.934 13.9619 30.9341 14.6993 30.9344C15.2291 30.9346 15.7589 30.9348 16.2888 30.9349C16.2997 30.9349 16.3106 30.9349 16.3219 30.9349C16.5611 30.9349 16.8004 30.9349 17.0397 30.9349H17.3604C17.6997 30.9349 18.039 30.9351 18.3782 30.9352C18.72 30.9354 19.0618 30.9355 19.4036 30.9354C19.4509 30.9354 19.4982 30.9354 19.5454 30.9354C19.5592 30.9354 19.5592 30.9354 19.5734 30.9354C19.7199 30.9353 19.8664 30.9354 20.013 30.9355C20.1572 30.9357 20.3014 30.9357 20.4455 30.9356C20.5226 30.9355 20.5997 30.9355 20.6768 30.9356C20.747 30.9358 20.8171 30.9357 20.8874 30.9356C20.9125 30.9356 20.9376 30.9356 20.9628 30.9357C21.1609 30.9364 21.3537 30.9202 21.5444 30.8631C21.5547 30.8601 21.565 30.8571 21.5756 30.854C22.1022 30.6935 22.5329 30.3256 22.7951 29.8445C22.9327 29.5841 23.0226 29.2887 23.0218 28.9929C23.0219 28.9821 23.0219 28.9714 23.0219 28.9605C23.0219 28.9245 23.0219 28.8887 23.0219 28.8529C23.0219 28.8269 23.0219 28.8008 23.022 28.7747V28.7693C23.022 28.7164 23.0648 28.6736 23.1176 28.6736H27.039C27.0918 28.6736 27.1346 28.7165 27.1346 28.7694C27.1344 29.0409 27.132 29.0811 27.1205 29.2782C27.12 29.2864 27.1196 29.2945 27.1191 29.3029C27.0479 30.4822 26.6179 31.6512 25.8407 32.6643C25.8318 32.6754 25.8318 32.6754 25.8228 32.6866C25.5853 32.9834 25.5853 32.9834 25.4768 33.0881C25.457 33.1078 25.439 33.1286 25.4209 33.1499C25.3376 33.2464 25.2456 33.3374 25.1484 33.4198C25.1227 33.4421 25.0977 33.4651 25.0727 33.4884C25.0004 33.5554 24.9261 33.619 24.8487 33.6803C24.8412 33.6864 24.8337 33.6923 24.8259 33.6985C24.5324 33.9324 24.2216 34.1335 23.8927 34.3138C23.8822 34.3196 23.8717 34.3254 23.8609 34.3314C22.8277 34.8963 21.7139 35.0474 20.555 35.0461C20.4856 35.046 20.4162 35.0461 20.3469 35.0461C20.2037 35.0462 20.0604 35.0462 19.9172 35.0462C19.7724 35.0461 19.6275 35.0461 19.4826 35.0461C19.4734 35.0461 19.4642 35.0461 19.4548 35.0461C19.4173 35.0462 19.3798 35.0462 19.3423 35.0462C18.9945 35.0463 18.6466 35.0463 18.2987 35.0462C17.9636 35.0462 17.6284 35.0462 17.2933 35.0462C17.2722 35.0462 17.2511 35.0462 17.23 35.0462C17.1452 35.0462 17.0604 35.0462 16.9757 35.0462C16.7386 35.0462 16.5017 35.0463 16.2647 35.0463C16.2539 35.0463 16.2431 35.0463 16.232 35.0463C15.8885 35.0463 15.5449 35.0462 15.2015 35.0462C15.1904 35.0462 15.1792 35.0462 15.1677 35.0462C14.987 35.0462 14.8062 35.0461 14.6255 35.0461C13.9087 35.046 13.1919 35.046 12.4752 35.0461C12.2945 35.0461 12.1138 35.0462 11.9332 35.0462C11.9221 35.0462 11.9109 35.0462 11.8994 35.0462C11.5563 35.0462 11.2131 35.0463 10.8699 35.0463C10.8591 35.0463 10.8483 35.0463 10.8373 35.0463C10.6006 35.0462 10.3638 35.0462 10.1271 35.0462C10.0424 35.0462 9.95768 35.0462 9.87296 35.0462C9.85195 35.0462 9.83084 35.0462 9.80973 35.0462C9.47477 35.0462 9.1398 35.0462 8.80481 35.0463C8.4579 35.0463 8.11097 35.0463 7.76405 35.0462C7.7267 35.0462 7.68936 35.0461 7.652 35.0461C7.64284 35.0461 7.63367 35.0461 7.62422 35.0461C7.47983 35.0461 7.33545 35.0461 7.19106 35.0462C7.04865 35.0462 6.90625 35.0462 6.76383 35.0461C6.68785 35.046 6.61186 35.046 6.53587 35.0461C6.01434 35.0467 6.01433 35.0467 5.76681 35.0322C5.75868 35.0317 5.75053 35.0312 5.74216 35.0307C4.5631 34.9595 3.39436 34.5295 2.38148 33.7521C2.3741 33.7461 2.36671 33.7403 2.3591 33.7341C2.06246 33.4966 2.06245 33.4966 1.9578 33.3881C1.93803 33.3683 1.91731 33.3503 1.89598 33.3322C1.79955 33.2489 1.7086 33.1568 1.62617 33.0597C1.60386 33.0339 1.58082 33.0088 1.55761 32.9839C1.49055 32.9116 1.42691 32.8373 1.36567 32.7599C1.35966 32.7524 1.35364 32.7448 1.34744 32.737C1.11363 32.4435 0.912638 32.1326 0.732299 31.8037C0.726519 31.7932 0.72073 31.7827 0.714776 31.7719C0.150012 30.7385 -0.00108855 29.6244 0.00023483 28.4652C0.000289851 28.3958 0.00023115 28.3265 0.000176463 28.2571C6.74841e-05 28.1139 6.40198e-05 27.9705 0.000129769 27.8273C0.000195856 27.6824 0.000213974 27.5376 0.00016479 27.3926C0.000161702 27.3835 0.000156297 27.3742 0.000153116 27.3648C0.000140369 27.3273 0.000131676 27.2898 0.000118095 27.2523C-7.89388e-06 26.9044 -1.89527e-05 26.5564 4.80553e-05 26.2085C0.000112578 25.8732 0.000136863 25.538 0.000106422 25.2028C0.00010457 25.1817 9.65854e-05 25.1606 9.47489e-05 25.1395C8.73277e-05 25.0547 7.93037e-05 24.9699 7.14022e-05 24.8852C4.94905e-05 24.648 4.35188e-05 24.411 3.63819e-05 24.174C3.60557e-05 24.1632 3.67179e-05 24.1524 3.63819e-05 24.1413C2.66077e-05 23.7978 5.44356e-05 23.4541 0.000106422 23.1105C0.000108101 23.0995 0.000104693 23.0883 0.000106422 23.0768C0.000133784 22.896 0.000158838 22.7152 0.000188136 22.5345C0.000304198 21.8175 0.000304323 21.1006 0.000188136 20.3837C0.000158946 20.2029 0.000133671 20.0222 0.000106422 19.8416C0.000104738 19.8305 9.64838e-05 19.8193 9.47489e-05 19.8078C4.31706e-05 19.4646 2.60081e-05 19.1214 3.63819e-05 18.7781C3.68688e-05 18.7619 3.58852e-05 18.7619 3.63819e-05 18.7454C4.38524e-05 18.5087 6.10149e-05 18.2719 8.30756e-05 18.0351C9.09415e-05 17.9504 9.90487e-05 17.8656 0.000106422 17.7809C0.000108272 17.7598 0.000104509 17.7388 0.000106422 17.7177C0.000136765 17.3827 0.000100906 17.0476 3.63819e-05 16.7125C-2.97113e-05 16.3655 -7.63934e-06 16.0185 0.000118095 15.6715C0.000131296 15.6341 0.000152254 15.5969 0.00016479 15.5595C0.000167902 15.5503 0.000173257 15.5411 0.000176463 15.5317C0.000223372 15.3873 0.000184377 15.2428 0.000118095 15.0984C5.4447e-05 14.956 7.58286e-05 14.8135 0.000188136 14.6711C0.000244625 14.5951 0.000263231 14.5191 0.000176463 14.4431C-0.000373529 13.9214 -0.000365998 13.9214 0.0140911 13.6739C0.0145649 13.6657 0.0150389 13.6575 0.015527 13.6492C0.0867847 12.4699 0.516762 11.3009 1.29398 10.2878C1.30282 10.2767 1.30282 10.2767 1.31184 10.2655C1.54932 9.9687 1.54932 9.9687 1.65786 9.86401C1.67767 9.84426 1.69563 9.82353 1.71375 9.80222C1.79701 9.70574 1.88905 9.61477 1.98618 9.53232C2.01197 9.51001 2.037 9.48695 2.06199 9.46374C2.13427 9.39668 2.20857 9.33301 2.28588 9.27177C2.29342 9.26575 2.30096 9.25973 2.30874 9.25352C2.60228 9.01967 2.91307 8.81863 3.24194 8.63826C3.25244 8.63248 3.26295 8.62669 3.27377 8.62073C4.24103 8.09187 5.27898 7.92569 6.35847 7.90773C6.41161 7.90684 6.45493 7.94984 6.45493 8.00299V11.9207Z" fill="url(#paint0_linear_31_1269)"/>
<path d="M19.3706 7.90594C19.4079 7.90595 19.4452 7.90597 19.4826 7.90599C19.4918 7.90599 19.501 7.90599 19.5104 7.906C19.6548 7.90605 19.7992 7.90601 19.9436 7.90594C20.086 7.90587 20.2284 7.90589 20.3708 7.90601C20.4468 7.90607 20.5228 7.90609 20.5987 7.906C21.1203 7.90545 21.1203 7.90546 21.3678 7.91991C21.376 7.92039 21.384 7.92087 21.3925 7.92135C22.5715 7.99262 23.7403 8.4227 24.7531 9.20007C24.7642 9.20892 24.7642 9.20892 24.7755 9.21794C25.0722 9.45547 25.0722 9.45547 25.1768 9.56404C25.1966 9.58385 25.2173 9.60182 25.2386 9.61993C25.3351 9.70323 25.4261 9.79524 25.5085 9.89244C25.5307 9.91823 25.5538 9.94323 25.577 9.96824C25.6441 10.0405 25.7077 10.1149 25.769 10.1922C25.775 10.1997 25.781 10.2073 25.7872 10.2151C26.021 10.5086 26.222 10.8195 26.4023 11.1485C26.4081 11.159 26.4139 11.1695 26.4198 11.1803C26.9846 12.2137 27.1357 13.3277 27.1344 14.4869C27.1343 14.5563 27.1344 14.6257 27.1344 14.695C27.1345 14.8383 27.1345 14.9816 27.1345 15.1248C27.1344 15.2697 27.1344 15.4146 27.1344 15.5595C27.1344 15.5687 27.1344 15.5779 27.1344 15.5873C27.1345 15.6248 27.1345 15.6623 27.1345 15.6998C27.1346 16.0478 27.1346 16.3957 27.1345 16.7436C27.1345 17.0788 27.1345 17.4141 27.1345 17.7493C27.1345 17.7704 27.1345 17.7915 27.1345 17.8126C27.1345 17.8974 27.1345 17.9822 27.1345 18.067C27.1345 18.3041 27.1346 18.5411 27.1346 18.7781C27.1346 18.7889 27.1346 18.7997 27.1346 18.8108C27.1346 19.1544 27.1346 19.498 27.1345 19.8416C27.1345 19.8527 27.1345 19.8639 27.1345 19.8753C27.1345 20.0561 27.1344 20.2369 27.1344 20.4177C27.1343 20.8064 27.1343 21.195 27.1343 21.5837C27.1343 21.6365 27.0915 21.6793 27.0387 21.6793H23.119C23.0661 21.6793 23.0233 21.6365 23.0233 21.5837C23.0234 21.1704 23.0235 20.7571 23.0236 20.3438C23.0238 19.8139 23.024 19.284 23.0241 18.754C23.0241 18.7431 23.0241 18.7322 23.0241 18.7209C23.0241 18.4817 23.0241 18.2423 23.0241 18.003V17.6822C23.0241 17.3428 23.0243 17.0034 23.0244 16.6641C23.0246 16.3222 23.0247 15.9804 23.0246 15.6385C23.0246 15.5912 23.0246 15.544 23.0246 15.4967C23.0246 15.4874 23.0246 15.4782 23.0246 15.4686C23.0245 15.3221 23.0246 15.1756 23.0247 15.029C23.0249 14.8848 23.0249 14.7406 23.0248 14.5964C23.0247 14.5193 23.0247 14.4422 23.0248 14.3651C23.025 14.2949 23.0249 14.2247 23.0248 14.1545C23.0248 14.1293 23.0248 14.1042 23.0249 14.079C23.0256 13.8809 23.0094 13.6879 22.9523 13.4973C22.9493 13.487 22.9463 13.4767 22.9432 13.4661C22.7828 12.9393 22.415 12.5086 21.9339 12.2463C21.6736 12.1087 21.3783 12.0188 21.0825 12.0196C21.0718 12.0195 21.0611 12.0195 21.0501 12.0195C21.0142 12.0194 20.9784 12.0195 20.9426 12.0195C20.9165 12.0195 20.8905 12.0195 20.8644 12.0194C20.7925 12.0194 20.7206 12.0194 20.6487 12.0194C20.5787 12.0194 20.5087 12.0194 20.4386 12.0193C20.2937 12.0192 20.1486 12.0192 20.0036 12.0192C19.8566 12.0192 19.7096 12.0191 19.5626 12.0191C19.5534 12.0191 19.5441 12.0191 19.5345 12.0191C19.4967 12.019 19.4589 12.019 19.4211 12.019C18.9735 12.0188 18.526 12.0187 18.0785 12.0187C17.8556 12.0186 17.6327 12.0186 17.4098 12.0185C16.6949 12.0184 15.9801 12.0183 15.2652 12.0182C15.231 12.0182 15.1969 12.0182 15.1627 12.0182C15.0942 12.0182 15.0257 12.0182 14.9571 12.0182C14.8769 12.0182 14.7967 12.0182 14.7164 12.0182C14.6935 12.0182 14.6705 12.0182 14.6476 12.0182C14.2795 12.0182 13.9115 12.0181 13.5434 12.018C13.4906 12.018 13.4478 11.9752 13.4478 11.9224V8.00173C13.4478 7.9489 13.4906 7.90608 13.5434 7.90608C13.9155 7.90609 14.2874 7.90607 14.6594 7.90601C14.8402 7.90598 15.0208 7.90594 15.2015 7.90591C15.2125 7.90591 15.2237 7.90591 15.2352 7.90591C15.5783 7.90586 15.9215 7.90584 16.2647 7.90585C16.2808 7.90585 16.2808 7.90585 16.2974 7.90585C16.534 7.90586 16.7708 7.90588 17.0075 7.9059C17.0922 7.90591 17.1769 7.90592 17.2617 7.90593C17.2827 7.90593 17.3038 7.90592 17.3249 7.90593C17.6598 7.90596 17.9948 7.90592 18.3298 7.90585C18.6768 7.9058 19.0236 7.90582 19.3706 7.90594Z" fill="url(#paint1_linear_31_1269)"/>
<path d="M14.4838 0.000228721C14.5531 0.000283755 14.6225 0.000224202 14.6918 0.000169503C14.835 6.05001e-05 14.9783 6.26405e-05 15.1215 0.000128404C15.2663 0.000194508 15.4112 0.000207788 15.5561 0.000158591C15.5653 0.000155502 15.5745 0.000152414 15.5839 0.000149233C15.6214 0.000136482 15.6589 0.000123364 15.6964 0.00010978C16.0443 -1.62368e-05 16.3921 -2.54369e-05 16.74 4.15856e-05C17.0751 0.000106123 17.4103 0.000131311 17.7454 0.000100863C17.7665 9.90107e-05 17.7876 9.71664e-05 17.8087 9.53295e-05C17.8935 8.79065e-05 17.9783 8.02882e-05 18.063 7.23849e-05C18.3001 5.04684e-05 18.5371 3.6823e-05 18.774 2.96846e-05C18.7848 2.93583e-05 18.7956 2.90321e-05 18.8067 2.86959e-05C19.1502 1.89196e-05 19.4938 4.581e-05 19.8373 9.78081e-05C19.8483 9.94874e-05 19.8595 0.000101167 19.871 0.000102897C20.0518 0.000130265 20.2325 0.00015942 20.4132 0.000188726C21.13 0.000304813 21.8468 0.000299425 22.5635 0.000183214C22.7443 0.000154016 22.9249 0.000125063 23.1055 9.78081e-05C23.1166 9.61239e-05 23.1278 9.44397e-05 23.1393 9.27044e-05C23.4824 4.11149e-05 23.8256 1.93086e-05 24.1688 2.96846e-05C24.1849 3.01718e-05 24.1849 3.01718e-05 24.2015 3.06687e-05C24.4381 3.81407e-05 24.6749 5.32924e-05 24.9116 7.5358e-05C24.9963 8.32257e-05 25.081 9.07105e-05 25.1658 9.80863e-05C25.1868 9.9936e-05 25.2079 0.000101819 25.229 0.000103733C25.5639 0.000134082 25.8989 0.000100133 26.2339 3.55959e-05C26.5808 -3.05126e-05 26.9277 -5.74605e-06 27.2746 0.000120017C27.312 0.00013322 27.3493 0.000146051 27.3867 0.000158591C27.3959 0.000161703 27.4051 0.000164816 27.4145 0.000168023C27.5589 0.000214944 27.7032 0.000182596 27.8477 0.000116299C27.9901 5.26357e-05 28.1325 7.6023e-05 28.2749 0.000188356C28.3509 0.000244857 28.4268 0.000265443 28.5028 0.00017865C29.0244 -0.000371461 29.0244 -0.000371462 29.2719 0.0140888C29.2801 0.0145628 29.2881 0.0150367 29.2966 0.015525C30.4756 0.0867977 31.6444 0.516869 32.6572 1.29425C32.6683 1.30309 32.6683 1.30309 32.6796 1.31212C32.9763 1.54965 32.9763 1.54965 33.0809 1.65822C33.1007 1.67803 33.1214 1.696 33.1427 1.71411C33.2392 1.7974 33.3301 1.88946 33.4125 1.98661C33.4348 2.01241 33.4579 2.03744 33.4811 2.06244C33.5482 2.13473 33.6118 2.20905 33.6731 2.28637C33.6791 2.29392 33.6851 2.30146 33.6912 2.30923C33.9251 2.60284 34.1261 2.9137 34.3064 3.24264C34.3122 3.25314 34.318 3.26365 34.3239 3.27447C34.8887 4.30786 35.0398 5.42192 35.0385 6.58112C35.0384 6.65048 35.0385 6.71985 35.0385 6.7892C35.0386 6.93246 35.0386 7.07572 35.0386 7.21898C35.0385 7.36388 35.0385 7.50876 35.0385 7.65366C35.0385 7.66285 35.0385 7.67206 35.0385 7.68153C35.0385 7.71901 35.0386 7.75649 35.0386 7.79397C35.0387 8.14193 35.0387 8.48987 35.0386 8.83782C35.0386 9.17303 35.0386 9.50825 35.0386 9.84347C35.0386 9.86458 35.0386 9.8857 35.0386 9.90681C35.0386 9.99156 35.0386 10.0764 35.0386 10.1611C35.0386 10.3983 35.0386 10.6353 35.0387 10.8723C35.0387 10.8831 35.0387 10.8939 35.0387 10.905C35.0387 11.2485 35.0386 11.5922 35.0386 11.9358C35.0386 11.9468 35.0386 11.958 35.0386 11.9695C35.0386 12.1503 35.0385 12.3311 35.0385 12.5118C35.0384 13.2288 35.0384 13.9457 35.0385 14.6626C35.0385 14.8434 35.0386 15.0241 35.0386 15.2047C35.0386 15.2215 35.0386 15.2215 35.0386 15.2385C35.0386 15.5817 35.0387 15.9249 35.0387 16.2682C35.0387 16.2844 35.0387 16.2844 35.0387 16.3009C35.0386 16.5376 35.0386 16.7744 35.0386 17.0112C35.0386 17.0959 35.0386 17.1807 35.0386 17.2654C35.0386 17.2865 35.0386 17.3075 35.0386 17.3286C35.0386 17.6636 35.0386 17.9987 35.0387 18.3337C35.0387 18.6808 35.0387 19.0278 35.0386 19.3748C35.0386 19.4121 35.0385 19.4494 35.0385 19.4868C35.0385 19.496 35.0385 19.5052 35.0385 19.5146C35.0385 19.659 35.0385 19.8035 35.0386 19.9479C35.0386 20.0903 35.0386 20.2328 35.0385 20.3752C35.0384 20.4512 35.0384 20.5272 35.0385 20.6032C35.0391 21.1249 35.0391 21.1249 35.0246 21.3724C35.0241 21.3806 35.0236 21.3887 35.0232 21.3971C34.9519 22.5764 34.522 23.7454 33.7447 24.7585C33.7359 24.7696 33.7359 24.7696 33.7268 24.7808C33.4894 25.0776 33.4894 25.0776 33.3808 25.1823C33.361 25.202 33.3431 25.2228 33.325 25.2441C33.2417 25.3406 33.1496 25.4316 33.0525 25.514C33.0268 25.5363 33.0017 25.5593 32.9768 25.5826C32.9045 25.6496 32.8302 25.7132 32.7528 25.7745C32.7453 25.7806 32.7377 25.7866 32.73 25.7927C32.4364 26.0266 32.1257 26.2277 31.7968 26.408C31.7863 26.4138 31.7758 26.4196 31.765 26.4256C30.7318 26.9905 29.618 27.1416 28.459 27.1403C28.3897 27.1402 28.3203 27.1403 28.251 27.1403C28.1078 27.1404 27.9645 27.1404 27.8213 27.1404C27.6765 27.1403 27.5315 27.1403 27.3867 27.1403C27.3775 27.1403 27.3683 27.1403 27.3589 27.1403C27.3214 27.1404 27.2839 27.1404 27.2464 27.1404C26.8985 27.1405 26.5507 27.1405 26.2028 27.1405C25.8677 27.1404 25.5325 27.1404 25.1974 27.1404C25.1763 27.1404 25.1552 27.1404 25.134 27.1404C25.0493 27.1404 24.9645 27.1404 24.8797 27.1404C24.6427 27.1404 24.4057 27.1405 24.1688 27.1405C24.158 27.1405 24.1472 27.1405 24.1361 27.1405C23.7926 27.1405 23.449 27.1405 23.1055 27.1404C23.0945 27.1404 23.0833 27.1404 23.0718 27.1404C22.8911 27.1404 22.7103 27.1403 22.5296 27.1403C21.8127 27.1402 21.096 27.1402 20.3793 27.1403C20.1985 27.1403 20.0179 27.1404 19.8373 27.1404C19.8261 27.1404 19.815 27.1404 19.8035 27.1404C19.4603 27.1405 19.1172 27.1405 18.774 27.1405C18.7632 27.1405 18.7524 27.1405 18.7413 27.1405C18.5047 27.1405 18.2679 27.1404 18.0311 27.1404C17.9465 27.1404 17.8618 27.1404 17.777 27.1404C17.7559 27.1404 17.7349 27.1404 17.7138 27.1404C17.3789 27.1404 17.0439 27.1404 16.7089 27.1405C16.362 27.1405 16.0151 27.1405 15.6681 27.1404C15.6307 27.1404 15.5934 27.1403 15.5561 27.1403C15.5469 27.1403 15.5377 27.1403 15.5283 27.1403C15.384 27.1403 15.2395 27.1403 15.0951 27.1404C14.9527 27.1404 14.8103 27.1404 14.6679 27.1403C14.5919 27.1402 14.516 27.1402 14.44 27.1403C13.9184 27.1409 13.9184 27.1409 13.6709 27.1264C13.6627 27.1259 13.6546 27.1254 13.6462 27.1249C12.4672 27.0537 11.2984 26.6237 10.2856 25.8462C10.2782 25.8403 10.2708 25.8345 10.2632 25.8283C9.96654 25.5908 9.96654 25.5908 9.86187 25.4823C9.84212 25.4625 9.8214 25.4445 9.8001 25.4264C9.70363 25.3431 9.61268 25.2511 9.53024 25.1539C9.50794 25.1281 9.48489 25.1031 9.46168 25.0781C9.39463 25.0058 9.33098 24.9315 9.26976 24.8541C9.26374 24.8466 9.25771 24.839 9.25152 24.8312C9.0177 24.5377 8.81671 24.2268 8.63637 23.8979C8.63059 23.8874 8.62482 23.8769 8.61886 23.8661C8.0541 22.8327 7.90299 21.7186 7.90431 20.5594C7.90437 20.49 7.90431 20.4207 7.90425 20.3513C7.90414 20.2081 7.90414 20.0647 7.90421 19.9215C7.90427 19.7766 7.90429 19.6318 7.90424 19.4868C7.90423 19.4777 7.90423 19.4684 7.90423 19.459C7.90421 19.4215 7.9042 19.384 7.90419 19.3465C7.90407 18.9986 7.90406 18.6506 7.90412 18.3027C7.90418 17.9675 7.90421 17.6322 7.90418 17.297C7.90418 17.2759 7.90417 17.2548 7.90417 17.2337C7.90416 17.1489 7.90416 17.0641 7.90415 16.9794C7.90413 16.7422 7.90412 16.5052 7.90412 16.2682C7.90411 16.2574 7.90411 16.2466 7.90411 16.2355C7.9041 15.892 7.90412 15.5483 7.90418 15.2047C7.90418 15.1937 7.90418 15.1825 7.90418 15.171C7.90421 14.9902 7.90424 14.8094 7.90427 14.6286C7.90439 13.9117 7.90438 13.1948 7.90426 12.4779C7.90423 12.2971 7.9042 12.1164 7.90418 11.9358C7.90417 11.9247 7.90417 11.9135 7.90417 11.902C7.90413 11.5588 7.9041 11.2156 7.90412 10.8723C7.90412 10.8561 7.90412 10.8561 7.90412 10.8396C7.90412 10.6029 7.90413 10.3661 7.90415 10.1293C7.90416 10.0446 7.90417 9.95984 7.90418 9.87509C7.90418 9.85398 7.90418 9.83296 7.90418 9.81185C7.90421 9.47683 7.90418 9.14177 7.90412 8.80672C7.90405 8.45973 7.90408 8.11273 7.9042 7.76573C7.90421 7.72837 7.90422 7.69101 7.90424 7.65366C7.90424 7.64449 7.90424 7.63533 7.90425 7.62588C7.9043 7.48146 7.90426 7.33703 7.90419 7.19262C7.90413 7.05017 7.90415 6.90774 7.90427 6.7653C7.90433 6.68929 7.90435 6.61328 7.90426 6.53727C7.90371 6.01563 7.90371 6.01563 7.91816 5.76806C7.91864 5.75992 7.91911 5.75178 7.9196 5.7434C7.99086 4.56408 8.42084 3.39509 9.19805 2.38199C9.2069 2.37092 9.2069 2.37092 9.21591 2.35962C9.4534 2.0629 9.4534 2.0629 9.56195 1.95822C9.58175 1.93845 9.59971 1.91772 9.61782 1.89639C9.7011 1.79994 9.79309 1.70897 9.89027 1.62652C9.91605 1.6042 9.94105 1.58115 9.96605 1.55793C10.0383 1.49088 10.1126 1.42722 10.19 1.36598C10.1975 1.35995 10.2051 1.35393 10.2128 1.34772C10.5063 1.11386 10.8171 0.912829 11.146 0.732449C11.1565 0.726669 11.167 0.720888 11.1778 0.714933C12.211 0.150046 13.3248 -0.00109495 14.4838 0.000228721ZM13.4944 4.18321C13.484 4.18624 13.4737 4.18926 13.4631 4.19238C12.9364 4.35277 12.5058 4.72063 12.2436 5.2018C12.106 5.46219 12.0161 5.75752 12.0169 6.05349C12.0168 6.06417 12.0168 6.07485 12.0168 6.08587C12.0167 6.12171 12.0168 6.15756 12.0168 6.1934C12.0168 6.21946 12.0168 6.24551 12.0167 6.27157C12.0167 6.34346 12.0167 6.41537 12.0167 6.48726C12.0167 6.55731 12.0167 6.62737 12.0166 6.69742C12.0165 6.84247 12.0165 6.98752 12.0165 7.13257C12.0165 7.27958 12.0164 7.4266 12.0164 7.5736C12.0164 7.58288 12.0164 7.59217 12.0164 7.60173C12.0163 7.63954 12.0163 7.67735 12.0163 7.71516C12.0161 8.16282 12.0161 8.61047 12.0161 9.05813C12.016 9.28103 12.016 9.50395 12.0159 9.72686C12.0158 10.4419 12.0157 11.157 12.0156 11.872C12.0156 11.9062 12.0156 11.9403 12.0156 11.9745C12.0156 12.0431 12.0156 12.1116 12.0156 12.1802C12.0156 12.2603 12.0156 12.3406 12.0156 12.4209C12.0156 12.4438 12.0156 12.4668 12.0156 12.4898C12.0155 13.2274 12.0153 13.9649 12.0151 14.7025C12.0149 15.2324 12.0147 15.7624 12.0146 16.2923C12.0146 16.3032 12.0146 16.3141 12.0146 16.3254C12.0146 16.5647 12.0146 16.804 12.0146 17.0434C12.0146 17.129 12.0146 17.2146 12.0146 17.3002C12.0146 17.3215 12.0146 17.3429 12.0145 17.3642C12.0145 17.7035 12.0144 18.0429 12.0142 18.3822C12.0141 18.7241 12.014 19.0659 12.0141 19.4078C12.0141 19.4551 12.0141 19.5024 12.0141 19.5497C12.0141 19.5589 12.0141 19.5681 12.0141 19.5777C12.0142 19.7242 12.0141 19.8707 12.0139 20.0174C12.0138 20.1616 12.0138 20.3058 12.0139 20.4499C12.014 20.527 12.014 20.6042 12.0139 20.6812C12.0137 20.7515 12.0137 20.8216 12.0139 20.8919C12.0139 20.9171 12.0139 20.9422 12.0138 20.9674C12.0131 21.1655 12.0293 21.3583 12.0864 21.549C12.0894 21.5593 12.0924 21.5696 12.0955 21.5802C12.2559 22.107 12.6236 22.5378 13.1048 22.8001C13.3651 22.9376 13.6603 23.0275 13.9562 23.0268C13.9669 23.0269 13.9776 23.0269 13.9886 23.0269C14.0245 23.027 14.0603 23.0269 14.0961 23.0269C14.1222 23.0269 14.1482 23.0269 14.1743 23.027C14.2462 23.027 14.3181 23.027 14.39 23.027C14.46 23.027 14.5301 23.027 14.6001 23.0271C14.745 23.0272 14.8901 23.0272 15.0351 23.0272C15.1821 23.0272 15.3291 23.0273 15.4761 23.0273C15.49 23.0273 15.49 23.0273 15.5042 23.0273C15.5419 23.0274 15.5798 23.0274 15.6176 23.0274C16.0652 23.0275 16.5126 23.0276 16.9602 23.0276C17.1831 23.0277 17.4059 23.0277 17.6288 23.0278C18.3437 23.0279 19.0586 23.028 19.7735 23.0281C19.8077 23.0281 19.8418 23.0281 19.876 23.0281C19.9446 23.0281 20.013 23.0281 20.0816 23.0281C20.1618 23.0281 20.242 23.0281 20.3223 23.0281C20.3452 23.0281 20.3682 23.0281 20.3911 23.0281C21.1286 23.0282 21.866 23.0283 22.6033 23.0286C23.1332 23.0288 23.663 23.029 24.1929 23.0291C24.2038 23.0291 24.2147 23.0291 24.226 23.0291C24.4652 23.0291 24.7045 23.0291 24.9438 23.0291C25.0294 23.0291 25.115 23.0291 25.2006 23.0291C25.2219 23.0291 25.2432 23.0291 25.2645 23.0291C25.6038 23.0292 25.943 23.0293 26.2823 23.0295C26.6241 23.0296 26.9659 23.0297 27.3077 23.0296C27.355 23.0296 27.4022 23.0296 27.4495 23.0296C27.4633 23.0296 27.4633 23.0296 27.4775 23.0296C27.624 23.0295 27.7705 23.0296 27.917 23.0298C28.0613 23.0299 28.2054 23.0299 28.3496 23.0298C28.4267 23.0297 28.5038 23.0297 28.5808 23.0298C28.6511 23.03 28.7212 23.0299 28.7914 23.0298C28.8166 23.0298 28.8417 23.0298 28.8669 23.0299C29.065 23.0306 29.2578 23.0144 29.4484 22.9573C29.4588 22.9543 29.4691 22.9513 29.4797 22.9482C30.0063 22.7877 30.437 22.4198 30.6992 21.9387C30.8368 21.6783 30.9267 21.383 30.9259 21.087C30.9259 21.0763 30.926 21.0656 30.926 21.0546C30.926 21.0187 30.926 20.9829 30.926 20.9471C30.926 20.9211 30.926 20.895 30.926 20.8689C30.9261 20.797 30.9261 20.7251 30.9261 20.6532C30.9261 20.5831 30.9261 20.5131 30.9262 20.443C30.9263 20.2981 30.9263 20.153 30.9263 20.0079C30.9263 19.8609 30.9264 19.7139 30.9264 19.5669C30.9264 19.5576 30.9264 19.5483 30.9264 19.5388C30.9264 19.5009 30.9265 19.4632 30.9265 19.4253C30.9267 18.9776 30.9268 18.5301 30.9268 18.0824C30.9268 17.8595 30.9268 17.6366 30.9268 17.4136C30.927 16.6986 30.9271 15.9835 30.9272 15.2685C30.9272 15.2343 30.9272 15.2002 30.9272 15.166C30.9272 15.0974 30.9272 15.0289 30.9272 14.9603C30.9272 14.8802 30.9272 14.7999 30.9272 14.7196C30.9272 14.6967 30.9272 14.6737 30.9272 14.6507C30.9273 13.9131 30.9274 13.1756 30.9277 12.438C30.9279 11.9081 30.9281 11.3781 30.9282 10.8482C30.9282 10.8373 30.9282 10.8264 30.9282 10.8151C30.9282 10.5758 30.9282 10.3365 30.9282 10.0971C30.9282 10.0115 30.9282 9.92588 30.9282 9.84026C30.9282 9.81895 30.9282 9.79764 30.9282 9.77634C30.9282 9.43698 30.9284 9.09764 30.9285 8.75828C30.9287 8.41642 30.9288 8.07457 30.9287 7.7327C30.9287 7.68543 30.9287 7.63816 30.9287 7.59088C30.9286 7.58162 30.9286 7.57235 30.9286 7.5628C30.9286 7.41626 30.9287 7.26972 30.9288 7.12318C30.929 6.97897 30.929 6.83477 30.9289 6.69056C30.9288 6.61346 30.9288 6.53636 30.9289 6.45928C30.9291 6.38906 30.929 6.31884 30.9289 6.24862C30.9288 6.22346 30.9289 6.1983 30.929 6.17313C30.9297 5.97501 30.9135 5.78214 30.8564 5.59145C30.8534 5.58115 30.8504 5.57084 30.8473 5.56023C30.6869 5.03343 30.3191 4.60277 29.838 4.34046C29.5777 4.20287 29.2824 4.11291 28.9866 4.11369C28.9759 4.11367 28.9652 4.11365 28.9542 4.11363C28.9183 4.11358 28.8825 4.11361 28.8466 4.11365C28.8206 4.11363 28.7946 4.1136 28.7685 4.11357C28.6966 4.11351 28.6247 4.11352 28.5528 4.11354C28.4828 4.11354 28.4127 4.1135 28.3427 4.11345C28.1978 4.11336 28.0527 4.11332 27.9077 4.11331C27.7607 4.11331 27.6137 4.11327 27.4667 4.11321C27.4575 4.1132 27.4482 4.1132 27.4386 4.1132C27.4008 4.11318 27.363 4.11317 27.3252 4.11316C26.8776 4.11296 26.4301 4.11288 25.9826 4.11282C25.7596 4.1128 25.5368 4.11275 25.3139 4.11271C24.599 4.11255 23.8841 4.11243 23.1693 4.11239C23.1351 4.11238 23.101 4.11238 23.0668 4.11238C22.9982 4.11238 22.9298 4.11237 22.8612 4.11237C22.7809 4.11236 22.7008 4.11236 22.6205 4.11235C22.5976 4.11235 22.5746 4.11235 22.5517 4.11235C21.8142 4.11231 21.0768 4.11212 20.3394 4.11184C19.8095 4.11165 19.2798 4.11146 18.7499 4.1114C18.739 4.1114 18.7281 4.1114 18.7168 4.1114C18.4775 4.11137 18.2383 4.11137 17.999 4.11137C17.9134 4.11136 17.8278 4.11136 17.7422 4.11136C17.7209 4.11136 17.6996 4.11136 17.6783 4.11136C17.339 4.11135 16.9997 4.11122 16.6605 4.11104C16.3187 4.11087 15.9769 4.11081 15.6351 4.11091C15.5878 4.11092 15.5406 4.11094 15.4933 4.11095C15.4794 4.11095 15.4794 4.11095 15.4653 4.11096C15.3188 4.11099 15.1723 4.1109 15.0257 4.11076C14.8815 4.11063 14.7374 4.11063 14.5932 4.11075C14.5161 4.11082 14.439 4.11082 14.362 4.11067C14.2917 4.11054 14.2216 4.11057 14.1514 4.11073C14.1262 4.11076 14.1011 4.11073 14.0759 4.11063C13.8778 4.10991 13.6849 4.12606 13.4944 4.18321Z" fill="url(#paint2_linear_31_1269)"/>
</g>
<defs>
<linearGradient id="paint0_linear_31_1269" x1="-2.20991e-07" y1="8.55518e-06" x2="42.5239" y2="22.2523" gradientUnits="userSpaceOnUse">
<stop stop-color="#5487E1"/>
<stop offset="1" stop-color="#97F4BD"/>
</linearGradient>
<linearGradient id="paint1_linear_31_1269" x1="-1.52319e-06" y1="2.83535e-05" x2="42.5239" y2="22.2523" gradientUnits="userSpaceOnUse">
<stop stop-color="#5487E1"/>
<stop offset="1" stop-color="#97F4BD"/>
</linearGradient>
<linearGradient id="paint2_linear_31_1269" x1="7.67166e-07" y1="-3.24145e-08" x2="42.5239" y2="22.2523" gradientUnits="userSpaceOnUse">
<stop stop-color="#5487E1"/>
<stop offset="1" stop-color="#97F4BD"/>
</linearGradient>
<clipPath id="clip0_31_1269">
<rect width="250" height="36" fill="white"/>
</clipPath>
</defs>
</svg>
