<svg width="84" height="85" viewBox="0 0 84 85" fill="none" xmlns="http://www.w3.org/2000/svg">
<path d="M42 7.11133C22.68 7.11133 7 22.7913 7 42.1113C7 61.4313 22.68 77.1113 42 77.1113C61.32 77.1113 77 61.4313 77 42.1113C77 22.7913 61.32 7.11133 42 7.11133ZM30.555 26.9213C33.39 26.9213 35.735 29.2313 35.735 32.1013C35.735 34.9363 33.425 37.2813 30.555 37.2813C27.72 37.2813 25.375 34.9713 25.375 32.1013C25.375 29.2313 27.685 26.9213 30.555 26.9213ZM30.975 55.4113C30.45 55.9363 29.785 56.1813 29.12 56.1813C28.455 56.1813 27.79 55.9363 27.265 55.4113C26.25 54.3963 26.25 52.7163 27.265 51.7013L50.19 28.7763C51.205 27.7613 52.885 27.7613 53.9 28.7763C54.915 29.7913 54.915 31.4713 53.9 32.4863L30.975 55.4113ZM53.445 57.3013C50.61 57.3013 48.265 54.9913 48.265 52.1213C48.265 49.2863 50.575 46.9413 53.445 46.9413C56.28 46.9413 58.625 49.2513 58.625 52.1213C58.625 54.9913 56.315 57.3013 53.445 57.3013Z" fill="#5487E1"/>
</svg>
