<svg width="84" height="85" viewBox="0 0 84 85" fill="none" xmlns="http://www.w3.org/2000/svg">
<path d="M76.7196 58.7349C75.5646 68.0449 67.9346 75.6749 58.6246 76.8299C52.9896 77.5299 47.7396 75.9899 43.6446 72.9799C41.2996 71.2649 41.8596 67.625 44.6596 66.785C55.1946 63.6 63.4896 55.27 66.7096 44.735C67.5496 41.97 71.1896 41.41 72.9046 43.72C75.8796 47.85 77.4196 53.0999 76.7196 58.7349Z" fill="#5DCD8B"/>
<path d="M34.9658 7.07715C50.4298 7.07715 62.9657 19.6132 62.9657 35.0771C62.9657 50.5411 50.4298 63.077 34.9658 63.077C19.5019 63.077 6.96582 50.5411 6.96582 35.0771C6.96582 19.6132 19.5019 7.07715 34.9658 7.07715ZM31.3736 21.0771C29.4409 21.0775 27.8736 22.6444 27.8736 24.5771V34.5987H26.3252C25.2547 34.5995 24.3875 35.4659 24.3872 36.5365C24.3872 37.6075 25.2545 38.4773 26.3252 38.478H27.8736V40.4366H26.0278C25.1221 40.4366 24.3872 41.1712 24.3872 42.077C24.3872 42.9828 25.1221 43.7178 26.0278 43.7178H27.8736V46.6368C27.8739 47.984 28.9666 49.0763 30.314 49.077C31.662 49.077 32.7574 47.9847 32.7578 46.6368V43.7178H35.4582C36.3629 43.7168 37.0951 42.9825 37.0951 42.077C37.0951 41.1719 36.3629 40.4373 35.4582 40.4366H32.7578V38.478H37.0577C42.1337 38.478 46.0856 35.5572 46.1633 30.2373C46.2406 24.1173 41.8614 21.0771 36.2817 21.0771H31.3736ZM36.4389 25.4385C39.4216 25.439 41.3595 27.0373 41.2822 30.1963C41.2437 32.7963 39.5763 34.5987 37.0577 34.5987H32.7578V25.4385H36.4389Z" fill="#5DCD8B"/>
</svg>
