<svg width="84" height="85" viewBox="0 0 84 85" fill="none" xmlns="http://www.w3.org/2000/svg">
<path d="M56 14.9863C56 19.3263 52.465 22.8613 48.125 22.8613H35.875C33.705 22.8613 31.745 21.9863 30.31 20.5513C28.875 19.1163 28 17.1563 28 14.9863C28 10.6463 31.535 7.11133 35.875 7.11133H48.125C50.295 7.11133 52.255 7.98633 53.69 9.42133C55.125 10.8563 56 12.8163 56 14.9863Z" fill="#5CC8D9"/>
<path d="M65.905 17.7163C65.1 17.0513 64.19 16.5263 63.21 16.1413C62.195 15.7563 61.18 16.5613 60.97 17.6113C59.78 23.5963 54.495 28.1113 48.125 28.1113H35.875C32.375 28.1113 29.085 26.7463 26.6 24.2613C24.78 22.4413 23.52 20.1313 23.03 17.6463C22.82 16.5963 21.77 15.7563 20.755 16.1763C16.695 17.8213 14 21.5313 14 28.9863V63.1113C14 73.6113 20.265 77.1113 28 77.1113H56C63.735 77.1113 70 73.6113 70 63.1113V28.9863C70 23.2813 68.425 19.7813 65.905 17.7163ZM28 42.9863H42C43.435 42.9863 44.625 44.1763 44.625 45.6113C44.625 47.0463 43.435 48.2363 42 48.2363H28C26.565 48.2363 25.375 47.0463 25.375 45.6113C25.375 44.1763 26.565 42.9863 28 42.9863ZM56 62.2363H28C26.565 62.2363 25.375 61.0463 25.375 59.6113C25.375 58.1763 26.565 56.9863 28 56.9863H56C57.435 56.9863 58.625 58.1763 58.625 59.6113C58.625 61.0463 57.435 62.2363 56 62.2363Z" fill="#5CC8D9"/>
</svg>
